<?xml version="1.0" encoding="UTF-8"?>
<svg version="1.1" xmlns="http://www.w3.org/2000/svg" width="200" height="200">
<path d="M0 0 C66 0 132 0 200 0 C200 66 200 132 200 200 C134 200 68 200 0 200 C0 134 0 68 0 0 Z " fill="#FCFEFC" transform="translate(0,0)"/>
<path d="M0 0 C11.22 0 22.44 0 34 0 C34 0.99 34 1.98 34 3 C38.29 3 42.58 3 47 3 C47 3.99 47 4.98 47 6 C48.98 6 50.96 6 53 6 C53.495 7.485 53.495 7.485 54 9 C54.99 9 55.98 9 57 9 C57 10.32 57 11.64 57 13 C58.98 13 60.96 13 63 13 C63 13.99 63 14.98 63 16 C64.32 16 65.64 16 67 16 C67 17.32 67 18.64 67 20 C67.99 20 68.98 20 70 20 C70 20.99 70 21.98 70 23 C70.99 23 71.98 23 73 23 C73 23.99 73 24.98 73 26 C74.32 26 75.64 26 77 26 C77 28.31 77 30.62 77 33 C64.79 33 52.58 33 40 33 C40 32.01 40 31.02 40 30 C39.01 30 38.02 30 37 30 C37 28.68 37 27.36 37 26 C24.79 26 12.58 26 0 26 C0 27.32 0 28.64 0 30 C-1.98 30 -3.96 30 -6 30 C-6 30.99 -6 31.98 -6 33 C-8.31 33 -10.62 33 -13 33 C-13 33.99 -13 34.98 -13 36 C-13.99 36 -14.98 36 -16 36 C-16 37.32 -16 38.64 -16 40 C-17.32 40 -18.64 40 -20 40 C-20 40.99 -20 41.98 -20 43 C-20.99 43 -21.98 43 -23 43 C-23 43.99 -23 44.98 -23 46 C-23.99 46 -24.98 46 -26 46 C-26 48.31 -26 50.62 -26 53 C-27.32 53 -28.64 53 -30 53 C-30 55.31 -30 57.62 -30 60 C-30.99 60 -31.98 60 -33 60 C-33 69.9 -33 79.8 -33 90 C-31.68 90 -30.36 90 -29 90 C-29 92.31 -29 94.62 -29 97 C-28.34 97 -27.68 97 -27 97 C-26.67 98.98 -26.34 100.96 -26 103 C-25.01 103 -24.02 103 -23 103 C-23 105.31 -23 107.62 -23 110 C-22.01 110 -21.02 110 -20 110 C-20 110.99 -20 111.98 -20 113 C-17.69 113 -15.38 113 -13 113 C-13 113.99 -13 114.98 -13 116 C-11.68 116.33 -10.36 116.66 -9 117 C-9 117.66 -9 118.32 -9 119 C-6.03 119.495 -6.03 119.495 -3 120 C-3 120.99 -3 121.98 -3 123 C-0.69 123 1.62 123 4 123 C4 123.99 4 124.98 4 126 C12.58 126 21.16 126 30 126 C30 125.01 30 124.02 30 123 C32.31 123 34.62 123 37 123 C37 122.01 37 121.02 37 120 C40.465 119.505 40.465 119.505 44 119 C44 118.34 44 117.68 44 117 C47.56927385 115.81024205 50.79946972 115.87521845 54.51171875 115.90234375 C55.23994339 115.9037587 55.96816803 115.90517365 56.71846008 115.90663147 C59.04151539 115.91222341 61.36447388 115.92477438 63.6875 115.9375 C65.26367048 115.94251604 66.83984248 115.94707877 68.41601562 115.95117188 C72.27738098 115.9621902 76.13867408 115.97944926 80 116 C80 117.32 80 118.64 80 120 C79.01 120 78.02 120 77 120 C77 120.99 77 121.98 77 123 C76.01 123 75.02 123 74 123 C74 123.99 74 124.98 74 126 C72.68 126 71.36 126 70 126 C70 127.32 70 128.64 70 130 C69.01 130 68.02 130 67 130 C67 130.99 67 131.98 67 133 C65.68 133 64.36 133 63 133 C63 133.99 63 134.98 63 136 C61.02 136 59.04 136 57 136 C57 137.32 57 138.64 57 140 C55.68 140 54.36 140 53 140 C53 140.99 53 141.98 53 143 C51.02 143 49.04 143 47 143 C47 143.99 47 144.98 47 146 C42.71 146.33 38.42 146.66 34 147 C34 147.66 34 148.32 34 149 C25.75999203 149.76397425 17.584365 150.1070242 9.3125 150.125 C8.00297363 150.13176758 8.00297363 150.13176758 6.66699219 150.13867188 C5.84489258 150.13673828 5.02279297 150.13480469 4.17578125 150.1328125 C3.07617065 150.13112061 3.07617065 150.13112061 1.9543457 150.12939453 C0 150 0 150 -3 149 C-3 148.34 -3 147.68 -3 147 C-6.3 146.67 -9.6 146.34 -13 146 C-13 145.01 -13 144.02 -13 143 C-15.31 143 -17.62 143 -20 143 C-20 142.01 -20 141.02 -20 140 C-22.31 140 -24.62 140 -27 140 C-27 139.01 -27 138.02 -27 137 C-27.99 136.67 -28.98 136.34 -30 136 C-30 135.01 -30 134.02 -30 133 C-30.99 133 -31.98 133 -33 133 C-33 132.01 -33 131.02 -33 130 C-33.99 130 -34.98 130 -36 130 C-36 128.68 -36 127.36 -36 126 C-37.32 126 -38.64 126 -40 126 C-40 125.01 -40 124.02 -40 123 C-40.99 123 -41.98 123 -43 123 C-43 122.01 -43 121.02 -43 120 C-43.99 120 -44.98 120 -46 120 C-46 117.69 -46 115.38 -46 113 C-47.32 113 -48.64 113 -50 113 C-50 111.02 -50 109.04 -50 107 C-50.99 106.67 -51.98 106.34 -53 106 C-53 104.02 -53 102.04 -53 100 C-53.99 100 -54.98 100 -56 100 C-56 83.5 -56 67 -56 50 C-55.01 50 -54.02 50 -53 50 C-53 46.7 -53 43.4 -53 40 C-52.01 40 -51.02 40 -50 40 C-50 38.68 -50 37.36 -50 36 C-48.68 36 -47.36 36 -46 36 C-46 34.02 -46 32.04 -46 30 C-45.01 30 -44.02 30 -43 30 C-43 28.68 -43 27.36 -43 26 C-42.01 26 -41.02 26 -40 26 C-40 25.01 -40 24.02 -40 23 C-38.68 23 -37.36 23 -36 23 C-36 22.01 -36 21.02 -36 20 C-35.01 20 -34.02 20 -33 20 C-33 18.68 -33 17.36 -33 16 C-31.68 16 -30.36 16 -29 16 C-29 15.01 -29 14.02 -29 13 C-27.02 13 -25.04 13 -23 13 C-23 11.68 -23 10.36 -23 9 C-22.01 9 -21.02 9 -20 9 C-20 8.01 -20 7.02 -20 6 C-17.69 6 -15.38 6 -13 6 C-13 5.01 -13 4.02 -13 3 C-8.71 3 -4.42 3 0 3 C0 2.01 0 1.02 0 0 Z " fill="#049FD5" transform="translate(88,27)"/>
<path d="M0 0 C9.9 0 19.8 0 30 0 C30 6.6 30 13.2 30 20 C30.99 20.33 31.98 20.66 33 21 C33.24434429 27.9043926 33.45677264 34.80923711 33.64697266 41.71533203 C33.7154554 44.06484207 33.79125898 46.41415054 33.87451172 48.76318359 C33.99287708 52.13873552 34.08494377 55.51413552 34.171875 58.890625 C34.21439392 59.94179504 34.25691284 60.99296509 34.30072021 62.07598877 C34.44967043 69.26383297 34.44967043 69.26383297 32.36914062 72.66992188 C29.35200689 74.36379498 27.37634556 74.45835972 23.921875 74.390625 C22.76171875 74.37773437 21.6015625 74.36484375 20.40625 74.3515625 C19.1996875 74.31804687 17.993125 74.28453125 16.75 74.25 C15.52796875 74.23195313 14.3059375 74.21390625 13.046875 74.1953125 C10.03045922 74.148181 7.01562509 74.08239413 4 74 C4 73.01 4 72.02 4 71 C2.68 70.67 1.36 70.34 0 70 C0 46.9 0 23.8 0 0 Z " fill="#9B9D9C" transform="translate(138,66)"/>
<path d="M0 0 C3.3 0 6.6 0 10 0 C10 3.3 10 6.6 10 10 C8.68 10 7.36 10 6 10 C6 11.32 6 12.64 6 14 C5.01 14 4.02 14 3 14 C3 14.99 3 15.98 3 17 C0.69 17 -1.62 17 -4 17 C-4 17.99 -4 18.98 -4 20 C-4.99 20 -5.98 20 -7 20 C-7 21.32 -7 22.64 -7 24 C-7.99 24 -8.98 24 -10 24 C-10 24.99 -10 25.98 -10 27 C-11.32 27 -12.64 27 -14 27 C-14 27.99 -14 28.98 -14 30 C-14.99 30 -15.98 30 -17 30 C-17 31.32 -17 32.64 -17 34 C-6.11 34 4.78 34 16 34 C16 34.99 16 35.98 16 37 C16.99 37 17.98 37 19 37 C19 37.99 19 38.98 19 40 C18.01 40 17.02 40 16 40 C16 41.32 16 42.64 16 44 C15.01 44 14.02 44 13 44 C13 44.99 13 45.98 13 47 C12.01 47 11.02 47 10 47 C9.67 48.32 9.34 49.64 9 51 C8.34 51 7.68 51 7 51 C6.67 51.99 6.34 52.98 6 54 C5.01 54 4.02 54 3 54 C3 54.99 3 55.98 3 57 C2.01 57 1.02 57 0 57 C-0.33 58.32 -0.66 59.64 -1 61 C-1.66 61 -2.32 61 -3 61 C-3 61.99 -3 62.98 -3 64 C-5.31 64 -7.62 64 -10 64 C-10 64.99 -10 65.98 -10 67 C-11.32 67 -12.64 67 -14 67 C-14 67.99 -14 68.98 -14 70 C-14.99 70 -15.98 70 -17 70 C-17 71.32 -17 72.64 -17 74 C-17.99 74 -18.98 74 -20 74 C-20 74.99 -20 75.98 -20 77 C-22.31 77 -24.62 77 -27 77 C-27 76.01 -27 75.02 -27 74 C-27.99 74 -28.98 74 -30 74 C-30 71.69 -30 69.38 -30 67 C-28.02 67 -26.04 67 -24 67 C-24 65.68 -24 64.36 -24 63 C-23.01 63 -22.02 63 -21 63 C-21 62.01 -21 61.02 -21 60 C-19.68 60 -18.36 60 -17 60 C-17 59.01 -17 58.02 -17 57 C-16.01 57 -15.02 57 -14 57 C-14 56.01 -14 55.02 -14 54 C-12.68 54 -11.36 54 -10 54 C-10 53.01 -10 52.02 -10 51 C-9.01 51 -8.02 51 -7 51 C-7 49.68 -7 48.36 -7 47 C-6.01 47 -5.02 47 -4 47 C-4 46.01 -4 45.02 -4 44 C-13.9 44 -23.8 44 -34 44 C-34 42.68 -34 41.36 -34 40 C-34.99 40 -35.98 40 -37 40 C-37 38.02 -37 36.04 -37 34 C-35.515 33.505 -35.515 33.505 -34 33 C-33.67 32.34 -33.34 31.68 -33 31 C-29.9375 30.375 -29.9375 30.375 -27 30 C-27 29.01 -27 28.02 -27 27 C-26.01 27 -25.02 27 -24 27 C-24 26.01 -24 25.02 -24 24 C-22.68 24 -21.36 24 -20 24 C-20 22.68 -20 21.36 -20 20 C-19.01 20 -18.02 20 -17 20 C-17 19.01 -17 18.02 -17 17 C-16.01 17 -15.02 17 -14 17 C-14 15.68 -14 14.36 -14 13 C-13.01 13 -12.02 13 -11 13 C-11 12.01 -11 11.02 -11 10 C-9.68 10 -8.36 10 -7 10 C-7 9.01 -7 8.02 -7 7 C-6.01 7 -5.02 7 -4 7 C-4 6.01 -4 5.02 -4 4 C-2.68 4 -1.36 4 0 4 C0 2.68 0 1.36 0 0 Z " fill="#0B9748" transform="translate(112,63)"/>
<path d="M0 0 C9.9 0 19.8 0 30 0 C30 6.6 30 13.2 30 20 C30.99 20.33 31.98 20.66 33 21 C33.24434429 27.9043926 33.45677264 34.80923711 33.64697266 41.71533203 C33.7154554 44.06484207 33.79125898 46.41415054 33.87451172 48.76318359 C33.99287708 52.13873552 34.08494377 55.51413552 34.171875 58.890625 C34.21439392 59.94179504 34.25691284 60.99296509 34.30072021 62.07598877 C34.44967043 69.26383297 34.44967043 69.26383297 32.36914062 72.66992188 C29.35200689 74.36379498 27.37634556 74.45835972 23.921875 74.390625 C22.76171875 74.37773437 21.6015625 74.36484375 20.40625 74.3515625 C19.1996875 74.31804687 17.993125 74.28453125 16.75 74.25 C15.52796875 74.23195313 14.3059375 74.21390625 13.046875 74.1953125 C10.03045922 74.148181 7.01562509 74.08239413 4 74 C4 73.01 4 72.02 4 71 C12.58 71 21.16 71 30 71 C30 54.5 30 38 30 21 C21.09 21 12.18 21 3 21 C3 37.5 3 54 3 71 C2.01 70.67 1.02 70.34 0 70 C0 46.9 0 23.8 0 0 Z " fill="#EBEBE9" transform="translate(138,66)"/>
<path d="M0 0 C0.99 0 1.98 0 3 0 C2.67 0.99 2.34 1.98 2 3 C1.34 3 0.68 3 0 3 C0 5.97 0 8.94 0 12 C1.05316406 11.9278125 2.10632813 11.855625 3.19140625 11.78125 C12.81396487 11.15186264 22.35651306 10.87366611 32 11 C32.495 13.475 32.495 13.475 33 16 C32.34 16 31.68 16 31 16 C30.87625 16.61875 30.7525 17.2375 30.625 17.875 C30 20 30 20 28 22 C28 22.99 28 23.98 28 25 C29.65 25.33 31.3 25.66 33 26 C32.67 27.32 32.34 28.64 32 30 C31.34 30 30.68 30 30 30 C30 30.99 30 31.98 30 33 C27.69 33 25.38 33 23 33 C23 33.99 23 34.98 23 36 C21.68 36 20.36 36 19 36 C19 36.99 19 37.98 19 39 C18.01 39 17.02 39 16 39 C16 40.32 16 41.64 16 43 C15.01 43 14.02 43 13 43 C13 43.99 13 44.98 13 46 C10.69 46 8.38 46 6 46 C6 45.01 6 44.02 6 43 C5.01 43 4.02 43 3 43 C3 40.69 3 38.38 3 36 C4.98 36 6.96 36 9 36 C9 34.68 9 33.36 9 32 C9.99 32 10.98 32 12 32 C12 31.01 12 30.02 12 29 C13.32 29 14.64 29 16 29 C16 28.01 16 27.02 16 26 C16.99 26 17.98 26 19 26 C19 25.01 19 24.02 19 23 C20.32 23 21.64 23 23 23 C23 22.01 23 21.02 23 20 C23.99 20 24.98 20 26 20 C26 18.68 26 17.36 26 16 C26.99 16 27.98 16 29 16 C29 15.01 29 14.02 29 13 C19.1 13 9.2 13 -1 13 C-1 11.68 -1 10.36 -1 9 C-1.99 9 -2.98 9 -4 9 C-4 7.02 -4 5.04 -4 3 C-3.01 2.67 -2.02 2.34 -1 2 C-0.67 1.34 -0.34 0.68 0 0 Z " fill="#17994E" transform="translate(79,94)"/>
<path d="M0 0 C8.91 0 17.82 0 27 0 C27 4.29 27 8.58 27 13 C18.09 13 9.18 13 0 13 C0 8.71 0 4.42 0 0 Z " fill="#9C9E9D" transform="translate(141,67)"/>
<path d="M0 0 C3.3 0 6.6 0 10 0 C10 3.3 10 6.6 10 10 C8.68 10 7.36 10 6 10 C6 11.32 6 12.64 6 14 C5.01 14 4.02 14 3 14 C3 14.99 3 15.98 3 17 C-0.63 17 -4.26 17 -8 17 C-7.67 16.01 -7.34 15.02 -7 14 C-8.98 14 -10.96 14 -13 14 C-13 15.98 -13 17.96 -13 20 C-15.31 20.99 -17.62 21.98 -20 23 C-20 22.01 -20 21.02 -20 20 C-19.01 20 -18.02 20 -17 20 C-17 19.01 -17 18.02 -17 17 C-16.01 17 -15.02 17 -14 17 C-14 15.68 -14 14.36 -14 13 C-13.01 13 -12.02 13 -11 13 C-11 12.01 -11 11.02 -11 10 C-9.68 10 -8.36 10 -7 10 C-7 9.01 -7 8.02 -7 7 C-6.01 7 -5.02 7 -4 7 C-4 6.01 -4 5.02 -4 4 C-2.68 4 -1.36 4 0 4 C0 2.68 0 1.36 0 0 Z M-7 12 C-6 14 -6 14 -6 14 Z " fill="#2CA35E" transform="translate(112,63)"/>
<path d="M0 0 C0.99 0 1.98 0 3 0 C3 13.2 3 26.4 3 40 C2.505 38.515 2.505 38.515 2 37 C1.01 37 0.02 37 -1 37 C-1.0246501 31.89136104 -1.04283607 26.78275641 -1.05493164 21.67407227 C-1.05997204 19.93480832 -1.0668043 18.19554864 -1.07543945 16.45629883 C-1.08751792 13.96174063 -1.09323108 11.46723827 -1.09765625 8.97265625 C-1.10281754 8.19036148 -1.10797882 7.40806671 -1.11329651 6.60206604 C-1.11349226 4.73432886 -1.06199694 2.86670796 -1 1 C-0.67 0.67 -0.34 0.34 0 0 Z " fill="#C8EDF8" transform="translate(29,83)"/>
<path d="M0 0 C0.99 0 1.98 0 3 0 C3 16.5 3 33 3 50 C2.01 49.67 1.02 49.34 0 49 C0 32.83 0 16.66 0 0 Z " fill="#D2D3D0" transform="translate(138,87)"/>
<path d="M0 0 C0.72822464 0.00141495 1.45644928 0.0028299 2.20674133 0.00428772 C4.52979664 0.00987966 6.85275513 0.02243063 9.17578125 0.03515625 C10.75195173 0.04017229 12.32812373 0.04473502 13.90429688 0.04882812 C17.76566223 0.05984645 21.62695533 0.07710551 25.48828125 0.09765625 C25.48828125 1.41765625 25.48828125 2.73765625 25.48828125 4.09765625 C24.49828125 4.09765625 23.50828125 4.09765625 22.48828125 4.09765625 C22.48828125 5.08765625 22.48828125 6.07765625 22.48828125 7.09765625 C21.49828125 7.09765625 20.50828125 7.09765625 19.48828125 7.09765625 C19.48828125 8.08765625 19.48828125 9.07765625 19.48828125 10.09765625 C18.16828125 10.09765625 16.84828125 10.09765625 15.48828125 10.09765625 C15.48828125 11.41765625 15.48828125 12.73765625 15.48828125 14.09765625 C14.49828125 14.09765625 13.50828125 14.09765625 12.48828125 14.09765625 C12.73828125 12.28515625 12.73828125 12.28515625 13.48828125 10.09765625 C14.50921875 9.35515625 14.50921875 9.35515625 15.55078125 8.59765625 C16.19015625 8.10265625 16.82953125 7.60765625 17.48828125 7.09765625 C17.48828125 5.77765625 17.48828125 4.45765625 17.48828125 3.09765625 C9.23828125 2.76765625 0.98828125 2.43765625 -7.51171875 2.09765625 C-7.51171875 2.75765625 -7.51171875 3.41765625 -7.51171875 4.09765625 C-8.50171875 4.42765625 -9.49171875 4.75765625 -10.51171875 5.09765625 C-10.84171875 5.75765625 -11.17171875 6.41765625 -11.51171875 7.09765625 C-13.49171875 7.09765625 -15.47171875 7.09765625 -17.51171875 7.09765625 C-17.51171875 6.10765625 -17.51171875 5.11765625 -17.51171875 4.09765625 C-14.04671875 3.60265625 -14.04671875 3.60265625 -10.51171875 3.09765625 C-10.51171875 2.43765625 -10.51171875 1.77765625 -10.51171875 1.09765625 C-6.9424449 -0.0921017 -3.71224903 -0.0271253 0 0 Z " fill="#45ADD0" transform="translate(142.51171875,142.90234375)"/>
<path d="M0 0 C6.93 0 13.86 0 21 0 C21 0.99 21 1.98 21 3 C25.29 3 29.58 3 34 3 C34.495 3.99 34.495 3.99 35 5 C35.99 5.66 36.98 6.32 38 7 C34.7 7 31.4 7 28 7 C28 6.01 28 5.02 28 4 C16.78 4 5.56 4 -6 4 C-6 4.99 -6 5.98 -6 7 C-6.99 7 -7.98 7 -9 7 C-9 5.68 -9 4.36 -9 3 C-6.04335481 1.5216774 -3.25770263 1.93967217 0 2 C0 1.34 0 0.68 0 0 Z " fill="#CDEDF9" transform="translate(94,23)"/>
<path d="M0 0 C0.33 0 0.66 0 1 0 C1.02708567 1.60407328 1.04643483 3.2082785 1.0625 4.8125 C1.07410156 5.70582031 1.08570313 6.59914063 1.09765625 7.51953125 C1 10 1 10 0 13 C-0.12255168 15.8243887 -0.18512869 18.61326762 -0.1875 21.4375 C-0.19974609 22.20126953 -0.21199219 22.96503906 -0.22460938 23.75195312 C-0.23506679 27.75714324 -0.09820688 30.48653201 2 34 C2.125 37.25 2.125 37.25 2 40 C2.66 40 3.32 40 4 40 C4.33 41.98 4.66 43.96 5 46 C5.66 46 6.32 46 7 46 C7 47.32 7 48.64 7 50 C6.01 50 5.02 50 4 50 C3.67 48.02 3.34 46.04 3 44 C2.34 44 1.68 44 1 44 C1 41.69 1 39.38 1 37 C-0.32 37 -1.64 37 -3 37 C-3 27.1 -3 17.2 -3 7 C-2.01 7 -1.02 7 0 7 C0 4.69 0 2.38 0 0 Z " fill="#E1F9FC" transform="translate(58,80)"/>
<path d="M0 0 C7.59 0 15.18 0 23 0 C23 0.66 23 1.32 23 2 C25.64 2 28.28 2 31 2 C31.33 2.99 31.66 3.98 32 5 C33.423125 4.9690625 33.423125 4.9690625 34.875 4.9375 C38 5 38 5 40 6 C40 7.32 40 8.64 40 10 C37.69 10 35.38 10 33 10 C33 9.01 33 8.02 33 7 C32.01 7 31.02 7 30 7 C30 5.68 30 4.36 30 3 C20.1 3 10.2 3 0 3 C0 2.01 0 1.02 0 0 Z " fill="#3BADD5" transform="translate(95,50)"/>
<path d="M0 0 C2.31 0 4.62 0 7 0 C7 0.99 7 1.98 7 3 C8.98 3 10.96 3 13 3 C13.33 3.99 13.66 4.98 14 6 C14.99 6 15.98 6 17 6 C17 7.32 17 8.64 17 10 C18.98 10 20.96 10 23 10 C23 10.99 23 11.98 23 13 C24.32 13 25.64 13 27 13 C27 14.32 27 15.64 27 17 C24.36 16.67 21.72 16.34 19 16 C19 14.35 19 12.7 19 11 C18.01 11 17.02 11 16 11 C15.34 10.34 14.68 9.68 14 9 C13.01 9 12.02 9 11 9 C10.67 7.35 10.34 5.7 10 4 C6.7 4 3.4 4 0 4 C0 2.68 0 1.36 0 0 Z " fill="#35ABD6" transform="translate(128,30)"/>
<path d="M0 0 C10.89 0 21.78 0 33 0 C33 0.99 33 1.98 33 3 C22.11 3 11.22 3 0 3 C0 2.01 0 1.02 0 0 Z " fill="#2CA45E" transform="translate(95,97)"/>
<path d="M0 0 C12.21 0 24.42 0 37 0 C37 1.32 37 2.64 37 4 C36.08992188 3.83757813 35.17984375 3.67515625 34.2421875 3.5078125 C28.88870771 2.7445708 23.52163264 2.85481309 18.125 2.875 C17.06796875 2.87113281 16.0109375 2.86726563 14.921875 2.86328125 C13.91898438 2.86457031 12.91609375 2.86585937 11.8828125 2.8671875 C10.96902832 2.86831543 10.05524414 2.86944336 9.11376953 2.87060547 C7.01431456 2.76482514 7.01431456 2.76482514 6 4 C4.00041636 4.04080783 1.99954746 4.04254356 0 4 C0 2.68 0 1.36 0 0 Z " fill="#E0F7FB" transform="translate(88,53)"/>
<path d="M0 0 C8.91 0 17.82 0 27 0 C27 0.99 27 1.98 27 3 C18.42 3 9.84 3 1 3 C1 6.3 1 9.6 1 13 C0.67 13 0.34 13 0 13 C0 8.71 0 4.42 0 0 Z " fill="#B2B1B1" transform="translate(141,67)"/>
<path d="M0 0 C0.99 0 1.98 0 3 0 C3 3.3 3 6.6 3 10 C2.34 10 1.68 10 1 10 C1 19.9 1 29.8 1 40 C1.66 40 2.32 40 3 40 C3 43.3 3 46.6 3 50 C2.01 50 1.02 50 0 50 C0 33.5 0 17 0 0 Z " fill="#2AA5D1" transform="translate(32,77)"/>
<path d="M0 0 C-2.67031284 2.67733998 -4.03721441 3.00280229 -7.890625 3.29296875 C-9.34404009 3.27314945 -10.79731167 3.23754845 -12.25 3.1875 C-12.99507812 3.17396484 -13.74015625 3.16042969 -14.5078125 3.14648438 C-16.33885416 3.11127204 -18.16952169 3.05746851 -20 3 C-20 3.99 -20 4.98 -20 6 C-25.61 6 -31.22 6 -37 6 C-36.01 5.67 -35.02 5.34 -34 5 C-34 4.34 -34 3.68 -34 3 C-25.9874678 1.96612488 -18.07094823 1.89533352 -10 2 C-10 1.34 -10 0.68 -10 0 C-6.33694766 -0.74926071 -3.57644848 -1.2380014 0 0 Z " fill="#BFE8F6" transform="translate(132,174)"/>
<path d="M0 0 C8.58 0 17.16 0 26 0 C26 0.99 26 1.98 26 3 C17.42 3 8.84 3 0 3 C0 2.01 0 1.02 0 0 Z " fill="#D1D1D0" transform="translate(142,137)"/>
<path d="M0 0 C0.99 0 1.98 0 3 0 C3 0.99 3 1.98 3 3 C14.22 3 25.44 3 37 3 C37 6.63 37 10.26 37 14 C35.68 14 34.36 14 33 14 C33 12.68 33 11.36 33 10 C33.99 10 34.98 10 36 10 C36 9.01 36 8.02 36 7 C35.01 7 34.02 7 33 7 C33 6.01 33 5.02 33 4 C22.11 4 11.22 4 0 4 C0 2.68 0 1.36 0 0 Z " fill="#A1E1B8" transform="translate(95,93)"/>
<path d="M0 0 C9.57 0 19.14 0 29 0 C29 0.99 29 1.98 29 3 C28.01 3 27.02 3 26 3 C26 4.32 26 5.64 26 7 C25.01 7 24.02 7 23 7 C23 7.99 23 8.98 23 10 C21.68 9.67 20.36 9.34 19 9 C19.99 9 20.98 9 22 9 C21.814375 8.21625 21.62875 7.4325 21.4375 6.625 C21 4 21 4 22 2 C14.74 1.67 7.48 1.34 0 1 C0 0.67 0 0.34 0 0 Z " fill="#E1FEEE" transform="translate(79,107)"/>
<path d="M0 0 C9.9 0 19.8 0 30 0 C30 0.33 30 0.66 30 1 C21.09 1 12.18 1 3 1 C3 5.29 3 9.58 3 14 C2.01 14 1.02 14 0 14 C0 9.38 0 4.76 0 0 Z " fill="#DCDBDA" transform="translate(138,66)"/>
<path d="M0 0 C0.99 0 1.98 0 3 0 C2.67 0.99 2.34 1.98 2 3 C1.34 3 0.68 3 0 3 C0 5.97 0 8.94 0 12 C9.57 12 19.14 12 29 12 C29 12.33 29 12.66 29 13 C19.1 13 9.2 13 -1 13 C-1 11.68 -1 10.36 -1 9 C-1.99 9 -2.98 9 -4 9 C-4 7.02 -4 5.04 -4 3 C-3.01 2.67 -2.02 2.34 -1 2 C-0.67 1.34 -0.34 0.68 0 0 Z " fill="#69B68A" transform="translate(79,94)"/>
<path d="M0 0 C2.31 0 4.62 0 7 0 C5.68 0.33 4.36 0.66 3 1 C3 1.99 3 2.98 3 4 C1.02 4 -0.96 4 -3 4 C-3 4.99 -3 5.98 -3 7 C-9.435 7.495 -9.435 7.495 -16 8 C-16 8.66 -16 9.32 -16 10 C-17.32 9.67 -18.64 9.34 -20 9 C-19.34 8.01 -18.68 7.02 -18 6 C-15.3984375 5.70703125 -15.3984375 5.70703125 -12.375 5.8125 C-10.87066406 5.85310547 -10.87066406 5.85310547 -9.3359375 5.89453125 C-8.56507813 5.92933594 -7.79421875 5.96414062 -7 6 C-7.33 4.68 -7.66 3.36 -8 2 C-5.36 2.33 -2.72 2.66 0 3 C0 2.01 0 1.02 0 0 Z " fill="#35ABD5" transform="translate(138,166)"/>
<path d="M0 0 C0.99 0 1.98 0 3 0 C3 7.92 3 15.84 3 24 C2.67 22.68 2.34 21.36 2 20 C1.34 20 0.68 20 0 20 C0 13.4 0 6.8 0 0 Z " fill="#85CDEA" transform="translate(29,93)"/>
<path d="M0 0 C0.99 0 1.98 0 3 0 C3 0.66 3 1.32 3 2 C3.67546875 1.98839844 4.3509375 1.97679687 5.046875 1.96484375 C6.38492188 1.95130859 6.38492188 1.95130859 7.75 1.9375 C9.07257813 1.92009766 9.07257813 1.92009766 10.421875 1.90234375 C12.7818838 1.99173802 14.74498524 2.33087179 17 3 C17 3.99 17 4.98 17 6 C22.28 6 27.56 6 33 6 C33 6.33 33 6.66 33 7 C29.72918529 7.02902429 26.4584037 7.04680684 23.1875 7.0625 C22.25873047 7.07087891 21.32996094 7.07925781 20.37304688 7.08789062 C19.48037109 7.09111328 18.58769531 7.09433594 17.66796875 7.09765625 C16.43469849 7.10551147 16.43469849 7.10551147 15.17651367 7.11352539 C13 7 13 7 10 6 C10 5.34 10 4.68 10 4 C6.7 3.67 3.4 3.34 0 3 C0 2.01 0 1.02 0 0 Z " fill="#4FB6DA" transform="translate(75,170)"/>
<path d="M0 0 C1.19947266 0.00451172 2.39894531 0.00902344 3.63476562 0.01367188 C6.56906359 0.02536231 9.50325449 0.04174862 12.4375 0.0625 C12.4375 0.7225 12.4375 1.3825 12.4375 2.0625 C-3.4025 2.5575 -3.4025 2.5575 -19.5625 3.0625 C-19.5625 3.7225 -19.5625 4.3825 -19.5625 5.0625 C-20.8825 5.0625 -22.2025 5.0625 -23.5625 5.0625 C-23.2325 3.7425 -22.9025 2.4225 -22.5625 1.0625 C-15.01327186 0.03709682 -7.61159157 -0.05475965 0 0 Z " fill="#E7FCFE" transform="translate(151.5625,140.9375)"/>
<path d="M0 0 C6.6 0 13.2 0 20 0 C20 0.99 20 1.98 20 3 C13.4 3 6.8 3 0 3 C0 2.01 0 1.02 0 0 Z " fill="#5FC0E0" transform="translate(95,50)"/>
<path d="M0 0 C0.33 0 0.66 0 1 0 C1.02708567 1.60407328 1.04643483 3.2082785 1.0625 4.8125 C1.07410156 5.70582031 1.08570313 6.59914063 1.09765625 7.51953125 C1 10 1 10 0 13 C-0.66 13 -1.32 13 -2 13 C-2 19.93 -2 26.86 -2 34 C-1.34 34 -0.68 34 0 34 C0 34.99 0 35.98 0 37 C-0.99 37 -1.98 37 -3 37 C-3 27.1 -3 17.2 -3 7 C-2.01 7 -1.02 7 0 7 C0 4.69 0 2.38 0 0 Z " fill="#95E3F6" transform="translate(58,80)"/>
<path d="M0 0 C0.99 0 1.98 0 3 0 C3 0.99 3 1.98 3 3 C4.32 3.33 5.64 3.66 7 4 C7 4.66 7 5.32 7 6 C9.97 6.495 9.97 6.495 13 7 C13 7.99 13 8.98 13 10 C10.69 10 8.38 10 6 10 C6 9.34 6 8.68 6 8 C5.38125 7.896875 4.7625 7.79375 4.125 7.6875 C2 7 2 7 0 4 C0 2.68 0 1.36 0 0 Z " fill="#53BADD" transform="translate(72,140)"/>
<path d="M0 0 C3.3 0 6.6 0 10 0 C10 0.33 10 0.66 10 1 C13.3 1.33 16.6 1.66 20 2 C20 1.34 20 0.68 20 0 C21.98 0 23.96 0 26 0 C26 0.99 26 1.98 26 3 C17.42 3 8.84 3 0 3 C0 2.01 0 1.02 0 0 Z " fill="#BEF1FB" transform="translate(92,150)"/>
<path d="M0 0 C3.3 0 6.6 0 10 0 C9.01 0.33 8.02 0.66 7 1 C7 1.99 7 2.98 7 4 C3.7 4 0.4 4 -3 4 C-3 4.99 -3 5.98 -3 7 C-5.31 7 -7.62 7 -10 7 C-9.01 6.67 -8.02 6.34 -7 6 C-7 5.01 -7 4.02 -7 3 C-4.69 3 -2.38 3 0 3 C0 2.01 0 1.02 0 0 Z " fill="#3FB1DA" transform="translate(75,30)"/>
<path d="M0 0 C-0.8125 2.9375 -0.8125 2.9375 -2 6 C-2.99 6.33 -3.98 6.66 -5 7 C-5.33 7.66 -5.66 8.32 -6 9 C-7.32 9 -8.64 9 -10 9 C-9.29922267 5.846502 -8.4158649 2.91038896 -7 0 C-3.86650268 -1.04449911 -3.01031744 -0.93423645 0 0 Z " fill="#059542" transform="translate(96,127)"/>
<path d="M0 0 C1.258125 -0.020625 2.51625 -0.04125 3.8125 -0.0625 C4.52019531 -0.07410156 5.22789063 -0.08570313 5.95703125 -0.09765625 C8 0 8 0 11 1 C11 1.66 11 2.32 11 3 C7.7 3 4.4 3 1 3 C1 4.32 1 5.64 1 7 C-0.32 7 -1.64 7 -3 7 C-3 7.99 -3 8.98 -3 10 C-3.99 10 -4.98 10 -6 10 C-6 8.68 -6 7.36 -6 6 C-4.36368108 4.95107762 -2.69514137 3.95093297 -1 3 C-0.67 2.01 -0.34 1.02 0 0 Z " fill="#F0FBF1" transform="translate(111,60)"/>
<path d="M0 0 C4.95 0 9.9 0 15 0 C15.33 1.65 15.66 3.3 16 5 C15.34 5 14.68 5 14 5 C13.67 6.32 13.34 7.64 13 9 C11.68 9 10.36 9 9 9 C9 7.68 9 6.36 9 5 C9.99 5 10.98 5 12 5 C12 3.68 12 2.36 12 1 C8.04 1 4.08 1 0 1 C0 0.67 0 0.34 0 0 Z " fill="#36A969" transform="translate(96,105)"/>
<path d="M0 0 C11.22 0 22.44 0 34 0 C34 0.99 34 1.98 34 3 C32.68 3 31.36 3 30 3 C30 2.34 30 1.68 30 1 C21.42 1 12.84 1 4 1 C4 1.66 4 2.32 4 3 C2.68 3 1.36 3 0 3 C0 2.01 0 1.02 0 0 Z " fill="#2CA3C9" transform="translate(88,27)"/>
<path d="M0 0 C0.99 0 1.98 0 3 0 C4.25664978 2.90600261 5 4.79604584 5 8 C6.32 8 7.64 8 9 8 C9.33 10.97 9.66 13.94 10 17 C9.01 17 8.02 17 7 17 C7 14.69 7 12.38 7 10 C5.68 10 4.36 10 3 10 C3 8.02 3 6.04 3 4 C2.01 3.67 1.02 3.34 0 3 C0 2.01 0 1.02 0 0 Z " fill="#33ACD2" transform="translate(35,130)"/>
<path d="M0 0 C0.33 1.32 0.66 2.64 1 4 C0.01 4 -0.98 4 -2 4 C-1.67 6.31 -1.34 8.62 -1 11 C-2.32 11 -3.64 11 -5 11 C-5 11.99 -5 12.98 -5 14 C-6.32 14 -7.64 14 -9 14 C-9 15.98 -9 17.96 -9 20 C-10.32 20 -11.64 20 -13 20 C-13 19.01 -13 18.02 -13 17 C-12.01 17 -11.02 17 -10 17 C-10 15.68 -10 14.36 -10 13 C-8.68 13 -7.36 13 -6 13 C-6 11.02 -6 9.04 -6 7 C-5.01 7 -4.02 7 -3 7 C-3 5.68 -3 4.36 -3 3 C-2.01 3 -1.02 3 0 3 C0 2.01 0 1.02 0 0 Z " fill="#56B9DC" transform="translate(48,50)"/>
<path d="M0 0 C2.31 0 4.62 0 7 0 C7 0.99 7 1.98 7 3 C8.98 3 10.96 3 13 3 C13.33 3.99 13.66 4.98 14 6 C14.99 6.33 15.98 6.66 17 7 C14.69 7 12.38 7 10 7 C10 6.01 10 5.02 10 4 C6.7 4 3.4 4 0 4 C0 2.68 0 1.36 0 0 Z " fill="#46B4DB" transform="translate(128,30)"/>
<path d="M0 0 C0.99 0 1.98 0 3 0 C2.69481346 3.56050965 1.99971192 5.00035037 -0.3125 7.8125 C-3 10 -3 10 -7 10 C-7 9.01 -7 8.02 -7 7 C-6.01 7 -5.02 7 -4 7 C-4 5.68 -4 4.36 -4 3 C-2.68 3 -1.36 3 0 3 C0 2.01 0 1.02 0 0 Z " fill="#E2F6FC" transform="translate(162,150)"/>
<path d="M0 0 C3.3 0 6.6 0 10 0 C10 3.3 10 6.6 10 10 C8.68 10 7.36 10 6 10 C6 9.01 6 8.02 6 7 C6.99 7 7.98 7 9 7 C9 6.01 9 5.02 9 4 C8.01 4 7.02 4 6 4 C6 3.01 6 2.02 6 1 C5.01 1 4.02 1 3 1 C3 1.99 3 2.98 3 4 C2.01 4 1.02 4 0 4 C0 2.68 0 1.36 0 0 Z " fill="#73C090" transform="translate(112,63)"/>
<path d="M0 0 C1.12148437 0.04833984 2.24296875 0.09667969 3.3984375 0.14648438 C5.161875 0.2305957 5.161875 0.2305957 6.9609375 0.31640625 C8.73597656 0.3947168 8.73597656 0.3947168 10.546875 0.47460938 C13.47681311 0.60456631 16.40643423 0.73954153 19.3359375 0.87890625 C19.3359375 1.20890625 19.3359375 1.53890625 19.3359375 1.87890625 C11.4159375 1.87890625 3.4959375 1.87890625 -4.6640625 1.87890625 C-4.6640625 2.86890625 -4.6640625 3.85890625 -4.6640625 4.87890625 C-5.6540625 4.87890625 -6.6440625 4.87890625 -7.6640625 4.87890625 C-7.6640625 3.55890625 -7.6640625 2.23890625 -7.6640625 0.87890625 C-4.96635992 -0.46994504 -3.01132875 -0.13687858 0 0 Z " fill="#9FE2F7" transform="translate(92.6640625,25.12109375)"/>
<path d="M0 0 C1.32 0.33 2.64 0.66 4 1 C3.01 1 2.02 1 1 1 C1 1.99 1 2.98 1 4 C0.01 4 -0.98 4 -2 4 C-2.33 5.65 -2.66 7.3 -3 9 C-3.99 9.33 -4.98 9.66 -6 10 C-6 11.32 -6 12.64 -6 14 C-6.99 14 -7.98 14 -9 14 C-9 11.69 -9 9.38 -9 7 C-7.02 7 -5.04 7 -3 7 C-3 5.68 -3 4.36 -3 3 C-2.01 3 -1.02 3 0 3 C0 2.01 0 1.02 0 0 Z " fill="#4CAD74" transform="translate(91,123)"/>
<path d="M0 0 C12.21 0 24.42 0 37 0 C37 0.99 37 1.98 37 3 C36.01 3 35.02 3 34 3 C34 2.34 34 1.68 34 1 C22.78 1 11.56 1 0 1 C0 0.67 0 0.34 0 0 Z " fill="#9DE2FA" transform="translate(88,53)"/>
<path d="M0 0 C10.89 0 21.78 0 33 0 C33 1.32 33 2.64 33 4 C32.01 4 31.02 4 30 4 C30 3.01 30 2.02 30 1 C20.1 1 10.2 1 0 1 C0 0.67 0 0.34 0 0 Z " fill="#93CBDF" transform="translate(135,143)"/>
<path d="M0 0 C-3.00166801 2.61289776 -4.79627311 3.36930244 -8.765625 3.29296875 C-9.65507813 3.28330078 -10.54453125 3.27363281 -11.4609375 3.26367188 C-12.38132812 3.23853516 -13.30171875 3.21339844 -14.25 3.1875 C-15.18585938 3.17396484 -16.12171875 3.16042969 -17.0859375 3.14648438 C-19.39121327 3.11119954 -21.6953106 3.06190281 -24 3 C-24 2.67 -24 2.34 -24 2 C-19.38 2 -14.76 2 -10 2 C-10 1.34 -10 0.68 -10 0 C-6.33694766 -0.74926071 -3.57644848 -1.2380014 0 0 Z " fill="#6CBEDC" transform="translate(132,174)"/>
<path d="M0 0 C1.32 0 2.64 0 4 0 C4 1.65 4 3.3 4 5 C9.28 5 14.56 5 20 5 C20 5.33 20 5.66 20 6 C13.4 6 6.8 6 0 6 C0 4.02 0 2.04 0 0 Z " fill="#D9F4DE" transform="translate(98,90)"/>
<path d="M0 0 C0 2.31 0 4.62 0 7 C-1.32 7 -2.64 7 -4 7 C-4 9.31 -4 11.62 -4 14 C-4.99 14 -5.98 14 -7 14 C-6.77113691 12.22631108 -6.5160762 10.45598923 -6.25 8.6875 C-6.11078125 7.70136719 -5.9715625 6.71523437 -5.828125 5.69921875 C-4.98109268 2.93837285 -3.33483011 0 0 0 Z " fill="#1FA5D3" transform="translate(62,73)"/>
<path d="M0 0 C0.99 0.33 1.98 0.66 3 1 C0.25 7.75 0.25 7.75 -2 10 C-3.32 10 -4.64 10 -6 10 C-6 8.68 -6 7.36 -6 6 C-5.01 6 -4.02 6 -3 6 C-3 5.01 -3 4.02 -3 3 C-2.01 3 -1.02 3 0 3 C0 2.01 0 1.02 0 0 Z " fill="#BBE9F6" transform="translate(68,67)"/>
<path d="M0 0 C1.65 0.33 3.3 0.66 5 1 C5 2.32 5 3.64 5 5 C4.01 5 3.02 5 2 5 C2 5.99 2 6.98 2 8 C0.68 8 -0.64 8 -2 8 C-2 9.32 -2 10.64 -2 12 C-2.99 12 -3.98 12 -5 12 C-4.75 10.1875 -4.75 10.1875 -4 8 C-3.319375 7.525625 -2.63875 7.05125 -1.9375 6.5625 C-0.9784375 5.7890625 -0.9784375 5.7890625 0 5 C0.33425735 2.37374861 0.33425735 2.37374861 0 0 Z " fill="#54B9DD" transform="translate(160,145)"/>
<path d="M0 0 C2.04136395 -0.05451714 4.08315856 -0.09302485 6.125 -0.125 C7.83042969 -0.15980469 7.83042969 -0.15980469 9.5703125 -0.1953125 C13.05757767 0.00327891 15.7553862 0.7475199 19 2 C19 2.33 19 2.66 19 3 C12.2314676 3.10152799 5.69675136 3.03026944 -1 2 C-0.67 1.34 -0.34 0.68 0 0 Z " fill="#F0F9F0" transform="translate(111,93)"/>
<path d="M0 0 C2.31 0 4.62 0 7 0 C7 0.99 7 1.98 7 3 C5.02 3.33 3.04 3.66 1 4 C0.67 4.99 0.34 5.98 0 7 C-0.99 7 -1.98 7 -3 7 C-2.67 5.68 -2.34 4.36 -2 3 C-1.34 3 -0.68 3 0 3 C0 2.01 0 1.02 0 0 Z " fill="#BDE8CC" transform="translate(78,90)"/>
<path d="M0 0 C1.98 0 3.96 0 6 0 C6 0.99 6 1.98 6 3 C8.31 3 10.62 3 13 3 C13 4.32 13 5.64 13 7 C11.68 7 10.36 7 9 7 C9 6.01 9 5.02 9 4 C6.69 4 4.38 4 2 4 C2 3.01 2 2.02 2 1 C1.34 0.67 0.68 0.34 0 0 Z " fill="#45B5DC" transform="translate(59,163)"/>
<path d="M0 0 C1.32 0.33 2.64 0.66 4 1 C4 1.99 4 2.98 4 4 C9.61 4 15.22 4 21 4 C21 4.33 21 4.66 21 5 C14.07 5 7.14 5 0 5 C0 3.35 0 1.7 0 0 Z M-3 5 C0 6 0 6 0 6 Z " fill="#F6F6F5" transform="translate(138,136)"/>
<path d="M0 0 C10.23 0 20.46 0 31 0 C31 0.99 31 1.98 31 3 C30.01 3 29.02 3 28 3 C28 2.34 28 1.68 28 1 C18.76 1 9.52 1 0 1 C0 0.67 0 0.34 0 0 Z " fill="#3E9F64" transform="translate(97,97)"/>
<path d="M0 0 C0.33 0 0.66 0 1 0 C1 2.31 1 4.62 1 7 C1.66 7 2.32 7 3 7 C3.33 8.98 3.66 10.96 4 13 C4.99 13 5.98 13 7 13 C7 13.99 7 14.98 7 16 C4.18957887 15.70926678 3.16652718 15.18436938 1.25 13.0625 C-0.52950996 8.70270059 -0.24370596 4.64846562 0 0 Z " fill="#40AACD" transform="translate(58,117)"/>
<path d="M0 0 C0 0.99 0 1.98 0 3 C-0.99 3 -1.98 3 -3 3 C-3 5.31 -3 7.62 -3 10 C-3.99 10 -4.98 10 -6 10 C-7.33827893 3.55192878 -7.33827893 3.55192878 -5.8125 1.0625 C-4 0 -4 0 0 0 Z " fill="#179A51" transform="translate(98,90)"/>
<path d="M0 0 C0.99 0.33 1.98 0.66 3 1 C3 2.98 3 4.96 3 7 C4.32 7 5.64 7 7 7 C7 7.99 7 8.98 7 10 C5.68 10 4.36 10 3 10 C3 9.34 3 8.68 3 8 C2.01 8 1.02 8 0 8 C0 5.36 0 2.72 0 0 Z " fill="#CEEDF7" transform="translate(35,133)"/>
<path d="M0 0 C2.31 0 4.62 0 7 0 C7 1.98 7 3.96 7 6 C6.01 6 5.02 6 4 6 C4 6.99 4 7.98 4 9 C2.68 8.67 1.36 8.34 0 8 C0.99 8 1.98 8 3 8 C2.7215625 6.824375 2.7215625 6.824375 2.4375 5.625 C2 3 2 3 3 1 C2.01 0.67 1.02 0.34 0 0 Z " fill="#D9F3E0" transform="translate(98,108)"/>
<path d="M0 0 C0.99 0 1.98 0 3 0 C2.67 0.99 2.34 1.98 2 3 C1.34 3 0.68 3 0 3 C0 4.98 0 6.96 0 9 C-1.32 9 -2.64 9 -4 9 C-4 7.02 -4 5.04 -4 3 C-3.01 2.67 -2.02 2.34 -1 2 C-0.67 1.34 -0.34 0.68 0 0 Z " fill="#5AB480" transform="translate(79,94)"/>
<path d="M0 0 C0.99 0 1.98 0 3 0 C3 0.99 3 1.98 3 3 C2.01 3.33 1.02 3.66 0 4 C-0.33 4.66 -0.66 5.32 -1 6 C-2.98 6 -4.96 6 -7 6 C-7 5.01 -7 4.02 -7 3 C-3.535 2.505 -3.535 2.505 0 2 C0 1.34 0 0.68 0 0 Z " fill="#74CAE5" transform="translate(132,144)"/>
<path d="M0 0 C1.32 0 2.64 0 4 0 C4 1.32 4 2.64 4 4 C3.01 4 2.02 4 1 4 C1 4.99 1 5.98 1 7 C-0.32 7 -1.64 7 -3 7 C-3 5.68 -3 4.36 -3 3 C-2.01 3 -1.02 3 0 3 C0 2.01 0 1.02 0 0 Z " fill="#B8E4C5" transform="translate(98,130)"/>
<path d="M0 0 C1.32 0 2.64 0 4 0 C4 1.32 4 2.64 4 4 C3.01 4 2.02 4 1 4 C1 4.99 1 5.98 1 7 C-0.32 7 -1.64 7 -3 7 C-3 5.68 -3 4.36 -3 3 C-2.01 3 -1.02 3 0 3 C0 2.01 0 1.02 0 0 Z " fill="#A9DDBA" transform="translate(108,80)"/>
<path d="M0 0 C1.32 0 2.64 0 4 0 C3.67 1.32 3.34 2.64 3 4 C2.34 4 1.68 4 1 4 C1 4.99 1 5.98 1 7 C-0.32 7 -1.64 7 -3 7 C-3 5.68 -3 4.36 -3 3 C-2.01 3 -1.02 3 0 3 C0 2.01 0 1.02 0 0 Z " fill="#85CA9C" transform="translate(108,120)"/>
<path d="M0 0 C0.33 0.99 0.66 1.98 1 3 C1.66 3 2.32 3 3 3 C3.33 6.3 3.66 9.6 4 13 C3.67 12.01 3.34 11.02 3 10 C2.01 10 1.02 10 0 10 C0 6.7 0 3.4 0 0 Z " fill="#D4F1F9" transform="translate(28,110)"/>
<path d="M0 0 C1.65 0 3.3 0 5 0 C3.25 3.875 3.25 3.875 1 5 C-1.125 4.5625 -1.125 4.5625 -3 4 C-3 4.66 -3 5.32 -3 6 C-3.99 6 -4.98 6 -6 6 C-6 5.01 -6 4.02 -6 3 C-4.02 3 -2.04 3 0 3 C0 2.01 0 1.02 0 0 Z " fill="#2CA8CF" transform="translate(65,37)"/>
<path d="M0 0 C0.99 0 1.98 0 3 0 C3.33 1.98 3.66 3.96 4 6 C4.66 6 5.32 6 6 6 C6 7.32 6 8.64 6 10 C5.01 10 4.02 10 3 10 C2.67 8.02 2.34 6.04 2 4 C1.34 4 0.68 4 0 4 C0 2.68 0 1.36 0 0 Z " fill="#D0EFF9" transform="translate(59,120)"/>
<path d="M0 0 C1.98 0 3.96 0 6 0 C6.33 0.66 6.66 1.32 7 2 C7.99 2.66 8.98 3.32 10 4 C6.7 4 3.4 4 0 4 C0 2.68 0 1.36 0 0 Z " fill="#C6ECF7" transform="translate(122,26)"/>
<path d="M0 0 C0.33 0 0.66 0 1 0 C1 1.98 1 3.96 1 6 C1.99 6 2.98 6 4 6 C4 7.32 4 8.64 4 10 C2.125 9.875 2.125 9.875 0 9 C-1.375 6.125 -1.375 6.125 -2 3 C-1.34 2.01 -0.68 1.02 0 0 Z " fill="#D8F5E1" transform="translate(74,97)"/>
<path d="M0 0 C0.99 0 1.98 0 3 0 C3 0.99 3 1.98 3 3 C1.02 3 -0.96 3 -3 3 C-3 3.99 -3 4.98 -3 6 C-4.32 6 -5.64 6 -7 6 C-7 4.68 -7 3.36 -7 2 C-4.69 2 -2.38 2 0 2 C0 1.34 0 0.68 0 0 Z " fill="#66C1E1" transform="translate(85,54)"/>
<path d="M0 0 C6.625 -0.125 6.625 -0.125 10 1 C10 1.66 10 2.32 10 3 C10.99 3.33 11.98 3.66 13 4 C7.73946963 4.31563182 4.55426184 3.66590937 0 1 C0 0.67 0 0.34 0 0 Z " fill="#A7E0F2" transform="translate(75,173)"/>
<path d="M0 0 C1.32 0.33 2.64 0.66 4 1 C4 1.99 4 2.98 4 4 C4.99 4 5.98 4 7 4 C7 4.99 7 5.98 7 7 C5.68 7 4.36 7 3 7 C3 6.01 3 5.02 3 4 C2.01 4 1.02 4 0 4 C0 2.68 0 1.36 0 0 Z " fill="#87D3F0" transform="translate(65,133)"/>
<path d="M0 0 C0.99 0 1.98 0 3 0 C2.125 4.75 2.125 4.75 1 7 C-0.32 7 -1.64 7 -3 7 C-3 5.68 -3 4.36 -3 3 C-2.01 3 -1.02 3 0 3 C0 2.01 0 1.02 0 0 Z " fill="#C7F1FC" transform="translate(75,60)"/>
<path d="M0 0 C0.99 0 1.98 0 3 0 C3 0.99 3 1.98 3 3 C4.32 3 5.64 3 7 3 C7 4.32 7 5.64 7 7 C4 7 4 7 1.8125 5.1875 C0 3 0 3 0 0 Z " fill="#BDEEFA" transform="translate(45,150)"/>
<path d="M0 0 C0.99 0 1.98 0 3 0 C3 0.99 3 1.98 3 3 C3.99 3 4.98 3 6 3 C6 3.99 6 4.98 6 6 C5.01 6 4.02 6 3 6 C3 5.34 3 4.68 3 4 C1.02 4.33 -0.96 4.66 -3 5 C-3 4.34 -3 3.68 -3 3 C-2.01 3 -1.02 3 0 3 C0 2.01 0 1.02 0 0 Z " fill="#16954D" transform="translate(115,64)"/>
<path d="M0 0 C0.99 0.33 1.98 0.66 3 1 C2.67 1.99 2.34 2.98 2 4 C0.35 4 -1.3 4 -3 4 C-3 4.99 -3 5.98 -3 7 C-3.99 7 -4.98 7 -6 7 C-6 5.68 -6 4.36 -6 3 C-4.02 3 -2.04 3 0 3 C0 2.01 0 1.02 0 0 Z " fill="#9DDEF1" transform="translate(151,160)"/>
<path d="M0 0 C1.32 0 2.64 0 4 0 C4 2.31 4 4.62 4 7 C2.68 6.67 1.36 6.34 0 6 C0.66 6 1.32 6 2 6 C2 5.34 2 4.68 2 4 C1.34 4 0.68 4 0 4 C0 2.68 0 1.36 0 0 Z " fill="#53B6D7" transform="translate(161,53)"/>
<path d="M0 0 C1.32 0 2.64 0 4 0 C4 0.99 4 1.98 4 3 C2.68 3 1.36 3 0 3 C0 3.99 0 4.98 0 6 C-0.99 6 -1.98 6 -3 6 C-2.67 4.68 -2.34 3.36 -2 2 C-1.34 2 -0.68 2 0 2 C0 1.34 0 0.68 0 0 Z " fill="#35ACD5" transform="translate(151,157)"/>
<path d="M0 0 C0.66 0 1.32 0 2 0 C1.67 0.99 1.34 1.98 1 3 C0.67 2.01 0.34 1.02 0 0 Z M-7 3 C-4.69 3 -2.38 3 0 3 C-0.99 4.485 -0.99 4.485 -2 6 C-4.625 6.1875 -4.625 6.1875 -7 6 C-7 5.01 -7 4.02 -7 3 Z " fill="#C8ECD4" transform="translate(109,124)"/>
<path d="M0 0 C0.99 0 1.98 0 3 0 C3 0.66 3 1.32 3 2 C7.62 2 12.24 2 17 2 C17 2.33 17 2.66 17 3 C11.39 3 5.78 3 0 3 C0 2.01 0 1.02 0 0 Z " fill="#209A58" transform="translate(79,103)"/>
<path d="M0 0 C0.99 0 1.98 0 3 0 C3 3.3 3 6.6 3 10 C2.34 10 1.68 10 1 10 C0.67 6.7 0.34 3.4 0 0 Z " fill="#3FB6E0" transform="translate(32,77)"/>
<path d="M0 0 C1.65 0 3.3 0 5 0 C6.32 2.31 7.64 4.62 9 7 C8.01 7 7.02 7 6 7 C6 6.01 6 5.02 6 4 C5.01 4 4.02 4 3 4 C3 3.01 3 2.02 3 1 C2.01 0.67 1.02 0.34 0 0 Z " fill="#43ADD1" transform="translate(52,156)"/>
<path d="M0 0 C2.31 0 4.62 0 7 0 C7 0.99 7 1.98 7 3 C4.69 3 2.38 3 0 3 C0 2.01 0 1.02 0 0 Z " fill="#40A66E" transform="translate(85,137)"/>
<path d="M0 0 C0.99 0 1.98 0 3 0 C3 2.31 3 4.62 3 7 C2.01 7 1.02 7 0 7 C0 4.69 0 2.38 0 0 Z " fill="#9DD2AD" transform="translate(82,130)"/>
<path d="M0 0 C0.99 0 1.98 0 3 0 C1.44499019 3.81684226 -1.03595495 6.19195732 -4 9 C-3.67 7.02 -3.34 5.04 -3 3 C-2.01 3 -1.02 3 0 3 C0 2.01 0 1.02 0 0 Z " fill="#EBFBED" transform="translate(115,117)"/>
<path d="M0 0 C1.32 0 2.64 0 4 0 C3.875 1.875 3.875 1.875 3 4 C-0.0625 5.25 -0.0625 5.25 -3 6 C-3 5.01 -3 4.02 -3 3 C-2.01 3 -1.02 3 0 3 C0 2.01 0 1.02 0 0 Z " fill="#299C58" transform="translate(95,80)"/>
<path d="M0 0 C0.99 0 1.98 0 3 0 C3 1.98 3 3.96 3 6 C2.01 6.33 1.02 6.66 0 7 C0 4.69 0 2.38 0 0 Z " fill="#CAEEFA" transform="translate(59,80)"/>
<path d="M0 0 C-2.35968744 2.09749995 -3.54616994 2.96905704 -6.75 3.1875 C-7.86375 3.0946875 -7.86375 3.0946875 -9 3 C-8.34 2.67 -7.68 2.34 -7 2 C-7 1.34 -7 0.68 -7 0 C-3.86650268 -1.04449911 -3.01031744 -0.93423645 0 0 Z " fill="#A3DFF5" transform="translate(132,174)"/>
<path d="M0 0 C0.99 0 1.98 0 3 0 C3 0.66 3 1.32 3 2 C6.3 2 9.6 2 13 2 C13 2.33 13 2.66 13 3 C8.71 3 4.42 3 0 3 C0 2.01 0 1.02 0 0 Z " fill="#31A7CF" transform="translate(75,170)"/>
<path d="M0 0 C3.3 0 6.6 0 10 0 C6.39338934 1.80330533 3.91606575 2.46599103 0 3 C0 2.01 0 1.02 0 0 Z " fill="#BAE4F3" transform="translate(92,150)"/>
<path d="M0 0 C1.98 0 3.96 0 6 0 C6 0.99 6 1.98 6 3 C7.32 3.33 8.64 3.66 10 4 C7.69 4 5.38 4 3 4 C3 3.01 3 2.02 3 1 C2.01 0.67 1.02 0.34 0 0 Z " fill="#DAF8FD" transform="translate(82,146)"/>
<path d="M0 0 C1.65 0 3.3 0 5 0 C4.67 1.32 4.34 2.64 4 4 C2.68 4 1.36 4 0 4 C0 2.68 0 1.36 0 0 Z " fill="#45A36A" transform="translate(105,110)"/>
<path d="M0 0 C0.33 0 0.66 0 1 0 C1 2.31 1 4.62 1 7 C-0.32 7 -1.64 7 -3 7 C-3 5.68 -3 4.36 -3 3 C-2.01 3 -1.02 3 0 3 C0 2.01 0 1.02 0 0 Z " fill="#9BD5AE" transform="translate(131,100)"/>
<path d="M0 0 C0.33 0 0.66 0 1 0 C1 3.3 1 6.6 1 10 C-0.32 10 -1.64 10 -3 10 C-3 9.01 -3 8.02 -3 7 C-2.01 7 -1.02 7 0 7 C0 4.69 0 2.38 0 0 Z " fill="#6AC2E4" transform="translate(58,80)"/>
<path d="M0 0 C1.32 0.33 2.64 0.66 4 1 C3.01 1 2.02 1 1 1 C1 2.98 1 4.96 1 7 C-0.32 7 -1.64 7 -3 7 C-3 6.01 -3 5.02 -3 4 C-2.01 4 -1.02 4 0 4 C0 2.68 0 1.36 0 0 Z " fill="#96D7ED" transform="translate(38,63)"/>
<path d="M0 0 C1.32 0 2.64 0 4 0 C4 1.32 4 2.64 4 4 C1.69 4 -0.62 4 -3 4 C-2.01 3.67 -1.02 3.34 0 3 C0 2.01 0 1.02 0 0 Z " fill="#7ECFEB" transform="translate(68,33)"/>
<path d="M0 0 C2.31 0 4.62 0 7 0 C6.01 1.485 6.01 1.485 5 3 C2.375 3.1875 2.375 3.1875 0 3 C0 2.01 0 1.02 0 0 Z " fill="#CEF4FB" transform="translate(141,167)"/>
<path d="M0 0 C1.98 0 3.96 0 6 0 C6 1.32 6 2.64 6 4 C4.68 4 3.36 4 2 4 C2 3.01 2 2.02 2 1 C1.34 0.67 0.68 0.34 0 0 Z " fill="#8ED7EF" transform="translate(59,163)"/>
<path d="M0 0 C0.33 0.99 0.66 1.98 1 3 C0.01 3 -0.98 3 -2 3 C-2 4.32 -2 5.64 -2 7 C-2.99 7 -3.98 7 -5 7 C-4.60196439 4.11424181 -4.20990931 3.17810487 -1.9375 1.25 C-1.298125 0.8375 -0.65875 0.425 0 0 Z " fill="#3BA7CC" transform="translate(160,150)"/>
<path d="M0 0 C0.99 0 1.98 0 3 0 C4.1577506 3.47325181 4.06866652 6.36067448 4 10 C3.67 10 3.34 10 3 10 C3 8.02 3 6.04 3 4 C2.01 3.67 1.02 3.34 0 3 C0 2.01 0 1.02 0 0 Z " fill="#5DC1E2" transform="translate(35,130)"/>
<path d="M0 0 C0.99 0 1.98 0 3 0 C3 0.99 3 1.98 3 3 C2.34 3 1.68 3 1 3 C1 5.97 1 8.94 1 12 C0.67 12 0.34 12 0 12 C0 8.04 0 4.08 0 0 Z " fill="#ADF0FB" transform="translate(55,90)"/>
<path d="M0 0 C2 3.75 2 3.75 2 6 C1.01 6.33 0.02 6.66 -1 7 C-1.66 6.67 -2.32 6.34 -3 6 C-3 5.01 -3 4.02 -3 3 C-2.01 3 -1.02 3 0 3 C0 2.01 0 1.02 0 0 Z " fill="#1A9B53" transform="translate(88,87)"/>
<path d="M0 0 C0.33 0.99 0.66 1.98 1 3 C-0.32 3 -1.64 3 -3 3 C-3 3.99 -3 4.98 -3 6 C-3.99 6 -4.98 6 -6 6 C-6 4.68 -6 3.36 -6 2 C-4.02 2 -2.04 2 0 2 C0 1.34 0 0.68 0 0 Z " fill="#D6F3DC" transform="translate(111,64)"/>
<path d="M0 0 C0 0.99 0 1.98 0 3 C-3.3 3.33 -6.6 3.66 -10 4 C-6.70320317 0.70320317 -4.71687256 0 0 0 Z " fill="#2AA8D2" transform="translate(95,50)"/>
<path d="M0 0 C1.32 0.33 2.64 0.66 4 1 C4 1.66 4 2.32 4 3 C4.99 3.33 5.98 3.66 7 4 C4.69 4 2.38 4 0 4 C0 2.68 0 1.36 0 0 Z " fill="#80D1EF" transform="translate(138,33)"/>
<path d="M0 0 C0.99 0 1.98 0 3 0 C3 0.99 3 1.98 3 3 C1.02 3.33 -0.96 3.66 -3 4 C-3.33 4.99 -3.66 5.98 -4 7 C-4 5.68 -4 4.36 -4 3 C-2.68 3 -1.36 3 0 3 C0 2.01 0 1.02 0 0 Z " fill="#C5F0FC" transform="translate(162,150)"/>
<path d="M0 0 C0.33 0 0.66 0 1 0 C1 2.31 1 4.62 1 7 C1.66 7 2.32 7 3 7 C3.33 7.99 3.66 8.98 4 10 C2.68 10 1.36 10 0 10 C0 6.7 0 3.4 0 0 Z " fill="#6AC4EA" transform="translate(58,117)"/>
<path d="M0 0 C1.98 0 3.96 0 6 0 C5.01 0.33 4.02 0.66 3 1 C2.67 1.99 2.34 2.98 2 4 C1.01 4 0.02 4 -1 4 C-0.67 2.68 -0.34 1.36 0 0 Z " fill="#CFEFDA" transform="translate(76,93)"/>
</svg>
