<svg width="24" height="25" viewBox="0 0 24 25" fill="none" xmlns="http://www.w3.org/2000/svg">
<path d="M5.16484 11.5434C5.09184 12.9394 5.17584 14.4254 3.92884 15.3604C3.64214 15.5749 3.4095 15.8535 3.24943 16.1738C3.08936 16.4941 3.00629 16.8473 3.00684 17.2054C3.00684 18.2024 3.78884 19.0524 4.80684 19.0524H19.2068C20.2248 19.0524 21.0068 18.2024 21.0068 17.2054C21.0068 16.4794 20.6648 15.7954 20.0848 15.3604C18.8378 14.4254 18.9218 12.9394 18.8488 11.5434C18.7588 9.78949 17.9987 8.13711 16.7255 6.9275C15.4522 5.7179 13.7631 5.04346 12.0068 5.04346C10.2506 5.04346 8.56145 5.7179 7.2882 6.9275C6.01494 8.13711 5.25483 9.78949 5.16484 11.5434Z" stroke="black" stroke-width="1.5" stroke-linecap="round" stroke-linejoin="round"/>
<path d="M15.0068 19.0524C15.0068 19.848 14.6908 20.6111 14.1282 21.1737C13.5655 21.7363 12.8025 22.0524 12.0068 22.0524C11.2112 22.0524 10.4481 21.7363 9.88552 21.1737C9.32291 20.6111 9.00684 19.848 9.00684 19.0524M10.5068 3.17737C10.5068 4.00537 11.1788 5.05237 12.0068 5.05237C12.8348 5.05237 13.5068 4.00537 13.5068 3.17737C13.5068 2.34937 12.8348 2.05237 12.0068 2.05237C11.1788 2.05237 10.5068 2.34937 10.5068 3.17737Z" stroke="black" stroke-width="1.5" stroke-linecap="round" stroke-linejoin="round"/>
</svg>
