<svg width="26" height="26" viewBox="0 0 26 26" fill="none" xmlns="http://www.w3.org/2000/svg">
<path d="M23.5469 9.03662H2.45312C2.14232 9.03662 1.84425 8.91316 1.62448 8.69339C1.40472 8.47362 1.28125 8.17555 1.28125 7.86475C1.28125 7.55395 1.40472 7.25587 1.62448 7.03611C1.84425 6.81634 2.14232 6.69287 2.45312 6.69287H23.5469C23.8577 6.69287 24.1557 6.81634 24.3755 7.03611C24.5953 7.25587 24.7188 7.55395 24.7188 7.86475C24.7188 8.17555 24.5953 8.47362 24.3755 8.69339C24.1557 8.91316 23.8577 9.03662 23.5469 9.03662ZM19.6406 14.5054H6.35938C6.04857 14.5054 5.7505 14.3819 5.53073 14.1621C5.31097 13.9424 5.1875 13.6443 5.1875 13.3335C5.1875 13.0227 5.31097 12.7246 5.53073 12.5049C5.7505 12.2851 6.04857 12.1616 6.35938 12.1616H19.6406C19.9514 12.1616 20.2495 12.2851 20.4693 12.5049C20.689 12.7246 20.8125 13.0227 20.8125 13.3335C20.8125 13.6443 20.689 13.9424 20.4693 14.1621C20.2495 14.3819 19.9514 14.5054 19.6406 14.5054ZM14.9531 19.9741H11.0469C10.7361 19.9741 10.438 19.8507 10.2182 19.6309C9.99846 19.4111 9.875 19.113 9.875 18.8022C9.875 18.4914 9.99846 18.1934 10.2182 17.9736C10.438 17.7538 10.7361 17.6304 11.0469 17.6304H14.9531C15.2639 17.6304 15.562 17.7538 15.7818 17.9736C16.0015 18.1934 16.125 18.4914 16.125 18.8022C16.125 19.113 16.0015 19.4111 15.7818 19.6309C15.562 19.8507 15.2639 19.9741 14.9531 19.9741Z" fill="black"/>
</svg>
