<svg width="24" height="25" viewBox="0 0 24 25" fill="none" xmlns="http://www.w3.org/2000/svg">
<path d="M12.2268 2.05237H11.7868C11.2564 2.05237 10.7477 2.26308 10.3726 2.63815C9.99755 3.01323 9.78684 3.52194 9.78684 4.05237V4.23237C9.78648 4.58309 9.6939 4.92756 9.51838 5.23121C9.34286 5.53485 9.09058 5.78701 8.78684 5.96237L8.35684 6.21237C8.0528 6.3879 7.70791 6.48032 7.35684 6.48032C7.00576 6.48032 6.66088 6.3879 6.35684 6.21237L6.20684 6.13237C5.7479 5.86763 5.20267 5.79581 4.69084 5.93268C4.179 6.06954 3.74239 6.4039 3.47684 6.86237L3.25684 7.24237C2.9921 7.7013 2.92028 8.24653 3.05715 8.75837C3.19401 9.2702 3.52837 9.70682 3.98684 9.97237L4.13684 10.0724C4.43911 10.2469 4.69046 10.4975 4.86589 10.7992C5.04132 11.1009 5.13473 11.4433 5.13684 11.7924V12.3024C5.13824 12.6548 5.04649 13.0013 4.87088 13.3069C4.69527 13.6124 4.44205 13.8662 4.13684 14.0424L3.98684 14.1324C3.52837 14.3979 3.19401 14.8345 3.05715 15.3464C2.92028 15.8582 2.9921 16.4034 3.25684 16.8624L3.47684 17.2424C3.74239 17.7008 4.179 18.0352 4.69084 18.1721C5.20267 18.3089 5.7479 18.2371 6.20684 17.9724L6.35684 17.8924C6.66088 17.7168 7.00576 17.6244 7.35684 17.6244C7.70791 17.6244 8.0528 17.7168 8.35684 17.8924L8.78684 18.1424C9.09058 18.3177 9.34286 18.5699 9.51838 18.8735C9.6939 19.1772 9.78648 19.5216 9.78684 19.8724V20.0524C9.78684 20.5828 9.99755 21.0915 10.3726 21.4666C10.7477 21.8417 11.2564 22.0524 11.7868 22.0524H12.2268C12.7573 22.0524 13.266 21.8417 13.6411 21.4666C14.0161 21.0915 14.2268 20.5828 14.2268 20.0524V19.8724C14.2272 19.5216 14.3198 19.1772 14.4953 18.8735C14.6708 18.5699 14.9231 18.3177 15.2268 18.1424L15.6568 17.8924C15.9609 17.7168 16.3058 17.6244 16.6568 17.6244C17.0079 17.6244 17.3528 17.7168 17.6568 17.8924L17.8068 17.9724C18.2658 18.2371 18.811 18.3089 19.3228 18.1721C19.8347 18.0352 20.2713 17.7008 20.5368 17.2424L20.7568 16.8524C21.0216 16.3934 21.0934 15.8482 20.9565 15.3364C20.8197 14.8245 20.4853 14.3879 20.0268 14.1224L19.8768 14.0424C19.5716 13.8662 19.3184 13.6124 19.1428 13.3069C18.9672 13.0013 18.8754 12.6548 18.8768 12.3024V11.8024C18.8754 11.4499 18.9672 11.1034 19.1428 10.7979C19.3184 10.4923 19.5716 10.2386 19.8768 10.0624L20.0268 9.97237C20.4853 9.70682 20.8197 9.2702 20.9565 8.75837C21.0934 8.24653 21.0216 7.7013 20.7568 7.24237L20.5368 6.86237C20.2713 6.4039 19.8347 6.06954 19.3228 5.93268C18.811 5.79581 18.2658 5.86763 17.8068 6.13237L17.6568 6.21237C17.3528 6.3879 17.0079 6.48032 16.6568 6.48032C16.3058 6.48032 15.9609 6.3879 15.6568 6.21237L15.2268 5.96237C14.9231 5.78701 14.6708 5.53485 14.4953 5.23121C14.3198 4.92756 14.2272 4.58309 14.2268 4.23237V4.05237C14.2268 3.52194 14.0161 3.01323 13.6411 2.63815C13.266 2.26308 12.7573 2.05237 12.2268 2.05237Z" stroke="black" stroke-width="1.5" stroke-linecap="round" stroke-linejoin="round"/>
<path d="M12.0068 15.0524C13.6637 15.0524 15.0068 13.7092 15.0068 12.0524C15.0068 10.3955 13.6637 9.05237 12.0068 9.05237C10.35 9.05237 9.00684 10.3955 9.00684 12.0524C9.00684 13.7092 10.35 15.0524 12.0068 15.0524Z" stroke="black" stroke-width="1.5" stroke-linecap="round" stroke-linejoin="round"/>
</svg>
